<svg xmlns="http://www.w3.org/2000/svg" height="24px" viewBox="0 -960 960 960" width="24px" fill="#e3e3e3"><path d="M418-120q-96-14-167-80.5T160-364h82q18 67 72.5 111.5T440-200q100 0 170-70t70-170q0-100-70-170t-170-70q-57 0-106.5 25.5T251-584h109v80H120v-240h80v94q47-52 108.5-81T440-760q134 0 227 93t93 227q0 121-79.5 211.5T480-121v-82q84-14 142-80.5T680-440q0-100-70-170t-170-70q-57 0-106.5 25.5T251-584h109v80H120v-240h80v94q47-52 108.5-81T440-760q134 0 227 93t93 227q0 134-93 227t-227 93h-22Zm38-200-56-56 64-64-64-64 56-56 64 64 64-64 56 56-64 64 64 64-56 56-64-64-64 64Z"/></svg>
